<svg xmlns="http://www.w3.org/2000/svg" xmlns:xlink="http://www.w3.org/1999/xlink" version="1.1" id="Layer_1" x="0px" y="0px" width="100px" height="100px" viewBox="0 0 100 100" enable-background="new 0 0 100 100" xml:space="preserve">
<g id="XMLID_21_">
	<g id="XMLID_22_">
		<g id="XMLID_23_">
			<g id="XMLID_24_">
				<g id="XMLID_25_">
					<g>
						<g id="XMLID_26_">
							<g>
								<path d="M22.68,72.64c2.141-8.22,6.6-15.1,12.37-19.34c3.47,3.53,8.3,5.72,13.62,5.72c5.311,0,10.15-2.189,13.62-5.72          c5.93,4.36,10.479,11.49,12.55,20.01l0.993,3.44l2.327-0.03h10.41l-3.63-6.279l-2.66-4.61c1.16-1.53,2.16-3.14,2.989-4.83          C87.03,57.42,88,53.51,88,49.42c0-17.37-17.49-31.5-39-31.5c-21.5,0-39,14.13-39,31.5C10,58.6,14.891,66.88,22.68,72.64z           M88.17,66.03L97.23,81.72H69.47c-6.12,2.681-13.08,4.2-20.47,4.2c-24.26,0-44-16.38-44-36.5c0-20.13,19.74-36.5,44-36.5          s44,16.37,44,36.5C93,55.4,91.26,61.05,88.17,66.03z"/>
								<path d="M64.23,39.91c0,3.23-0.99,6.23-2.681,8.72c-0.67,0.99-1.46,1.91-2.35,2.72c-2.76,2.561-6.48,4.12-10.53,4.12          s-7.76-1.56-10.529-4.12c-0.891-0.81-1.681-1.729-2.361-2.72c-1.689-2.49-2.67-5.49-2.67-8.72          c0-8.58,6.99-15.55,15.561-15.55S64.23,31.33,64.23,39.91z"/>
							</g>
						</g>
					</g>
				</g>
			</g>
		</g>
	</g>
</g>
</svg>