<svg xmlns:dc="http://purl.org/dc/elements/1.1/" xmlns:cc="http://creativecommons.org/ns#" xmlns:rdf="http://www.w3.org/1999/02/22-rdf-syntax-ns#" xmlns:svg="http://www.w3.org/2000/svg" xmlns="http://www.w3.org/2000/svg" xmlns:sodipodi="http://sodipodi.sourceforge.net/DTD/sodipodi-0.dtd" xmlns:inkscape="http://www.inkscape.org/namespaces/inkscape" width="100" height="100" id="svg2986" version="1.1" inkscape:version="0.48.1 " sodipodi:docname="NounProject_SocialMedia.svg">
  <title id="title3815">Social Media</title>
  <defs id="defs2988"/>
  <sodipodi:namedview id="base" pagecolor="#ffffff" bordercolor="#666666" borderopacity="1.0" inkscape:pageopacity="0.0" inkscape:pageshadow="2" inkscape:zoom="5.44" inkscape:cx="50" inkscape:cy="50" inkscape:current-layer="layer1" showgrid="true" inkscape:grid-bbox="true" inkscape:document-units="px" inkscape:window-width="1280" inkscape:window-height="744" inkscape:window-x="-4" inkscape:window-y="-4" inkscape:window-maximized="1"/>
  <metadata id="metadata2991">
    <rdf:RDF>
      <cc:Work rdf:about="">
        <dc:format>image/svg+xml</dc:format>
        <dc:type rdf:resource="http://purl.org/dc/dcmitype/StillImage"/>
        <dc:title>Social Media</dc:title>
        <cc:license rdf:resource="http://creativecommons.org/licenses/publicdomain/"/>
      </cc:Work>
      <cc:License rdf:about="http://creativecommons.org/licenses/publicdomain/">
        <cc:permits rdf:resource="http://creativecommons.org/ns#Reproduction"/>
        <cc:permits rdf:resource="http://creativecommons.org/ns#Distribution"/>
        <cc:permits rdf:resource="http://creativecommons.org/ns#DerivativeWorks"/>
      </cc:License>
    </rdf:RDF>
  </metadata>
  <g id="layer1" inkscape:label="Layer 1" inkscape:groupmode="layer" transform="translate(0,52)">
    <path style="font-size:medium;font-style:normal;font-variant:normal;font-weight:normal;font-stretch:normal;text-indent:0;text-align:start;text-decoration:none;line-height:normal;letter-spacing:normal;word-spacing:normal;text-transform:none;direction:ltr;block-progression:tb;writing-mode:lr-tb;text-anchor:start;baseline-shift:baseline;color:#000000;fill:#000000;fill-opacity:1;stroke:none;stroke-width:5.38461542;marker:none;visibility:visible;display:inline;overflow:visible;enable-background:accumulate;font-family:Sans;-inkscape-font-specification:Sans" d="M 12.03125,-39.599609 C 8.188205,-39.599609 5,-36.411405 5,-32.568359 L 5,9.9003907 C 5,13.743436 8.188205,16.93164 12.03125,16.93164 l 10.054687,0 0.210938,11.742188 0.140625,6.925781 4.992187,-4.816406 14.414063,-13.851563 46.125,0 C 91.811795,16.93164 95,13.743436 95,9.9003907 l 0,-42.4687497 c 0,-3.843046 -3.188205,-7.03125 -7.03125,-7.03125 l -75.9375,0 z m 0,6.046875 75.9375,0 c 0.591863,0 0.984375,0.392508 0.984375,0.984375 l 0,42.4687497 c 0,0.5918673 -0.392512,0.9843753 -0.984375,0.9843753 l -47.355469,0 -1.195312,0 -0.878907,0.84375 -10.300781,9.914063 -0.175781,-7.804688 -0.03516,-2.953125 -2.988282,0 -13.007812,0 c -0.591867,0 -0.984375,-0.392508 -0.984375,-0.9843753 l 0,-42.4687497 c 0,-0.591867 0.392508,-0.984375 0.984375,-0.984375 z" id="rect2994" inkscape:connector-curvature="0"/>
    <path d="m 51.031252,-28.637868 c -3.382398,0 -6.377898,0.675113 -9,2.0625 -2.628249,1.375092 -4.680227,3.439366 -6.1875,6.1875 -1.514445,2.761455 -2.28325,5.750812 -2.28125,8.9375 0,2.9090054 0.673067,5.5940984 2,8.0625004 1.334105,2.46840197 3.358936,4.32624697 6.09375,5.59375 2.721493,1.267502 5.962352,1.90625 9.71875,1.90625 3.861937,0 7.148898,-0.756048 9.84375,-2.25 2.348517,-1.32078503 4.085478,-3.098719 5.21875,-5.40625 l -3.625,0 c -1.193727,1.520593 -2.764726,2.61470297 -4.71875,3.37499997 -1.961196,0.760297 -4.290803,1.15625 -7,1.15625 -2.814737,0 -5.343604,-0.449223 -7.53125,-1.34375 -2.181498,-0.90784697 -3.873382,-2.33798297 -5.09375,-4.31249997 -1.2009,-1.961196 -1.8125,-4.142771 -1.8125,-6.5312504 0,-2.468402 0.543986,-4.857431 1.625,-7.125 1.101508,-2.28089 2.709386,-4.040389 4.84375,-5.28125 2.141536,-1.267503 4.761577,-1.90625 7.84375,-1.90625 3.622168,0 6.440951,0.944548 8.46875,2.8125 2.021651,1.894594 3.03125,4.243154 3.03125,7.03125 0,1.560555 -0.373415,3.046009 -1.09375,4.5 -0.713162,1.4406704 -1.620312,2.6152094 -2.78125,3.4687504 -0.859688,0.668077 -1.571685,1 -2.125,1 -0.18034,0 -0.341692,-0.072224 -0.46875,-0.21875 -0.132185,-0.146526 -0.1875,-0.330923 -0.1875,-0.625 0,-0.22645 0.0589,-0.726383 0.21875,-1.5 l 2.59375,-12.2187504 -4.5,0 -0.4375,1.875 c -0.96113,-1.548259 -2.447099,-2.3125 -4.46875,-2.3125 -2.841378,0 -5.179182,1.349719 -7,4.03125 -1.501125,2.200967 -2.25,4.630968 -2.25,7.3125 0,2.1476844 0.634139,3.8800364 1.875,5.1875004 1.240862,1.294144 2.799055,1.9375 4.6875,1.9375 1.747043,0 3.290895,-0.643356 4.625,-1.9375 0.153699,0.640412 0.495358,1.134711 0.96875,1.46875 0.480565,0.334039 1.184363,0.46875 2.125,0.46875 3.502283,0 6.351797,-1.457283 8.59375,-4.40625 1.780856,-2.348517 2.6875,-4.9803404 2.6875,-7.8750004 0,-2.428441 -0.58189,-4.66431 -1.75,-6.71875 -1.180407,-2.055465 -2.896367,-3.629023 -5.125,-4.75 -2.228632,-1.106631 -4.769277,-1.65625 -7.625,-1.65625 z m -1.4375,10 c 0.906823,0 1.655698,0.368806 2.25,1.0625 0.60045,0.680373 0.90625,1.656677 0.90625,2.9375 0,1.147618 -0.221795,2.397965 -0.65625,3.71875 -0.433431,1.3341054 -0.96205,2.3375564 -1.5625,3.0312504 -0.42011,0.480565 -0.84782,0.835026 -1.28125,1.0625 -0.567661,0.319693 -1.165941,0.46875 -1.8125,0.46875 -0.866861,0 -1.593198,-0.319627 -2.1875,-1 -0.579957,-0.680373 -0.875,-1.745806 -0.875,-3.1875004 0,-1.081015 0.20489,-2.318041 0.625,-3.71875 0.42011,-1.400708 1.047076,-2.458454 1.875,-3.21875 0.833047,-0.760297 1.7443,-1.15625 2.71875,-1.15625 z" id="path3784" inkscape:connector-curvature="0" style="fill:#000000;fill-opacity:1;stroke:none"/>
  </g>
</svg>