<svg xmlns="http://www.w3.org/2000/svg" xmlns:xlink="http://www.w3.org/1999/xlink" version="1.1" id="Layer_1" x="0px" y="0px" width="100px" height="100px" viewBox="0 0 100 100" enable-background="new 0 0 100 100" xml:space="preserve">
<path fill="#000000" d="M91.378,55.202c0.039-8.905-8.329-16.29-19.545-17.766c1.453,2.895,2.261,6.04,2.265,9.33  c0.007,10.43-7.975,19.433-19.424,23.5c3.751,1.852,8.23,2.933,13.047,2.938c1.697,0,1.697,0,1.697,0  c1.788-0.213,4.91,0.289,6.938,1.116l7.843,3.189c2.028,0.825,3.896,1.227,2.769-1.092c-0.666-1.36-1.963-3.985-1.963-3.985  c-0.879-2.005-0.918-4.556,1.232-6.447C86.236,65.984,91.345,62.55,91.378,55.202z"/>
<path fill="#000000" d="M41.004,24.495c-16.34,0.018-29.281,10.015-29.228,22.337c0.04,9.092,6.363,13.342,6.363,13.342  c2.664,2.342,2.612,5.497,1.524,7.98c0,0-1.607,3.248-2.428,4.931c-1.401,2.866,0.912,2.373,3.424,1.352l9.703-3.949  c2.513-1.022,6.374-1.644,8.585-1.378c0,0,0,0,2.1-0.004c16.344-0.016,29.585-10.018,29.576-22.334  C70.611,34.45,57.35,24.477,41.004,24.495z M26.554,50.596c-2.073,0-3.754-1.548-3.754-3.456c0-1.907,1.681-3.456,3.754-3.456  c2.074,0,3.754,1.549,3.754,3.456C30.308,49.048,28.628,50.596,26.554,50.596z M41.638,50.596c-2.074,0-3.754-1.548-3.754-3.456  c0-1.907,1.68-3.456,3.754-3.456c2.073,0,3.754,1.549,3.754,3.456C45.392,49.048,43.711,50.596,41.638,50.596z M56.722,50.596  c-2.072,0-3.754-1.548-3.754-3.456c0-1.907,1.682-3.456,3.754-3.456c2.074,0,3.755,1.549,3.755,3.456  C60.477,49.048,58.796,50.596,56.722,50.596z"/>
</svg>